Coordinates
version=1
nRows=8
nColumns=63
inDegrees=yes

Units are S.I. units (second, meters, Newtons, ...)
If the header above contains a line with 'inDegrees', this indicates whether rotational values are in degrees (yes) or radians (no).

endheader
time	pelvis_tilt	pelvis_list	pelvis_rotation	pelvis_tx	pelvis_ty	pelvis_tz	hip_flexion_r	hip_adduction_r	hip_rotation_r	knee_angle_r	knee_angle_r_beta	ankle_angle_r	subtalar_angle_r	mtp_angle_r	hip_flexion_l	hip_adduction_l	hip_rotation_l	knee_angle_l	knee_angle_l_beta	ankle_angle_l	subtalar_angle_l	mtp_angle_l	L5_S1_Flex_Ext	L5_S1_Lat_Bending	L5_S1_axial_rotation	L4_L5_Flex_Ext	L4_L5_Lat_Bending	L4_L5_axial_rotation	L3_L4_Flex_Ext	L3_L4_Lat_Bending	L3_L4_axial_rotation	L2_L3_Flex_Ext	L2_L3_Lat_Bending	L2_L3_axial_rotation	L1_L2_Flex_Ext	L1_L2_Lat_Bending	L1_L2_axial_rotation	L1_T12_Flex_Ext	L1_T12_Lat_Bending	L1_T12_axial_rotation	Abs_r3	Abs_r2	Abs_r1	Abs_t1	Abs_t2	neck_flexion	neck_bending	neck_rotation	arm_flex_r	arm_add_r	arm_rot_r	elbow_flex_r	pro_sup_r	wrist_flex_r	wrist_dev_r	arm_flex_l	arm_add_l	arm_rot_l	elbow_flex_l	pro_sup_l	wrist_flex_l	wrist_dev_l
1.800000	0.227237	-3.577741	91.987847	0.156267	0.860763	0.741901	5.133118	-0.709553	-15.943632	15.633242	0.272852	31.493246	18.208318	0.000000	2.505890	-0.339796	-0.816407	9.942676	0.173532	23.974118	-9.556522	0.000000	-0.323301	0.054237	0.172988	-0.600403	0.072135	0.183800	-0.531152	0.131872	0.183800	-0.369501	0.131872	0.151365	-0.300218	0.110600	0.140553	-0.184734	0.084013	0.129741	-2.309308	0.613539	0.962110	0.000000	0.000000	13.103973	9.970205	-6.444204	0.296774	-15.589328	34.116933	62.317651	89.471268	-5.871071	5.193909	17.728258	-2.828405	142.472421	3.287081	3.440662	-1.255284	-22.403193
1.816667	0.431362	-3.565236	92.004558	0.154998	0.861760	0.742160	5.091456	-0.564662	-15.929158	15.540326	0.271230	31.100002	18.164202	0.000000	2.459641	-0.391368	-0.108575	9.902618	0.172833	23.347138	-10.871549	0.000000	-0.310506	0.095369	0.230338	-0.576641	0.126841	0.244734	-0.510131	0.231881	0.244734	-0.354878	0.231881	0.201546	-0.288336	0.194477	0.187150	-0.177423	0.147727	0.172754	-2.217915	1.078835	1.281072	0.000000	0.000000	13.052975	9.327880	-6.776820	-0.232452	-15.869396	32.694865	66.583756	89.458915	-1.586036	7.860730	18.279134	-1.476885	149.018472	2.265762	2.985650	-5.405078	-23.107973
1.833333	0.671215	-3.548373	92.016559	0.153690	0.862641	0.742301	5.034864	-0.390929	-15.966464	15.457229	0.269780	30.685136	18.110683	0.000000	2.399732	-0.487104	0.515156	9.883630	0.172502	22.766479	-12.072545	0.000000	-0.296019	0.139703	0.287150	-0.549737	0.185806	0.305097	-0.486329	0.339675	0.305097	-0.338320	0.339675	0.251256	-0.274883	0.284883	0.233309	-0.169145	0.216401	0.215362	-2.114433	1.580353	1.597041	0.000000	0.000000	13.184625	8.606443	-7.096156	-0.498023	-16.135234	30.996374	70.170917	93.877889	8.506742	11.701083	18.769271	-0.097213	155.628580	1.391683	2.685536	-10.694601	-23.693562
1.850000	0.919430	-3.538105	92.021879	0.152456	0.863387	0.742300	4.968460	-0.208328	-16.048266	15.375953	0.268361	30.261062	18.047509	0.000000	2.342023	-0.615120	0.951539	9.894399	0.172690	22.276776	-13.005426	0.000000	-0.278662	0.182126	0.354476	-0.517503	0.242228	0.376631	-0.457814	0.442821	0.376631	-0.318483	0.442821	0.310166	-0.258766	0.371392	0.288012	-0.159228	0.282113	0.265857	-1.990455	2.060247	1.971489	0.000000	0.000000	13.501741	7.830286	-7.473058	-0.747348	-16.203285	29.290379	73.615752	95.526859	16.035475	15.432019	19.203388	1.294588	162.340180	0.692455	2.441618	-16.970246	-24.129058
1.866667	1.162434	-3.533019	92.012019	0.151357	0.863991	0.742190	4.892936	-0.025176	-16.146462	15.291674	0.266890	29.838724	17.971230	0.000000	2.291502	-0.764126	1.192667	9.936455	0.173424	21.887149	-13.674043	0.000000	-0.259199	0.220207	0.433161	-0.481358	0.292876	0.460234	-0.425837	0.535412	0.460234	-0.296238	0.535412	0.379016	-0.240692	0.449047	0.351943	-0.148106	0.341101	0.324871	-1.851430	2.491031	2.409113	0.000000	0.000000	13.986711	7.027918	-7.898495	-0.927771	-16.043136	27.675562	76.681801	94.842890	21.036146	19.041186	19.581341	2.669376	168.979049	0.194288	2.431738	-24.130937	-24.343271
1.883333	1.382073	-3.539485	91.997319	0.150431	0.864470	0.741970	4.811640	0.144148	-16.264069	15.194755	0.265199	29.433531	17.889017	0.000000	2.257056	-0.914501	1.270670	10.001519	0.174559	21.588533	-14.112388	0.000000	-0.237199	0.252156	0.519636	-0.440502	0.335368	0.552113	-0.389694	0.613092	0.552113	-0.271094	0.613092	0.454681	-0.220263	0.514197	0.422204	-0.135535	0.390590	0.389727	-1.694287	2.852440	2.890057	0.000000	0.000000	14.622192	6.205306	-8.308597	-0.982835	-15.658501	26.384792	79.170466	92.111507	23.454603	22.356537	19.797007	3.915576	176.741969	-0.076910	2.824244	-35.162875	-24.298495
1.900000	1.635158	-3.530602	91.970033	0.149438	0.864979	0.741760	4.700684	0.350015	-16.384087	15.063442	0.262907	29.003798	17.808959	0.000000	2.224926	-1.116437	1.151243	10.097679	0.176238	21.398737	-14.277687	0.000000	-0.215512	0.285024	0.634856	-0.400226	0.379082	0.674535	-0.354064	0.693007	0.674535	-0.246308	0.693007	0.555499	-0.200124	0.581220	0.515821	-0.123143	0.441502	0.476142	-1.539377	3.224245	3.530881	0.000000	0.000000	15.333713	5.369311	-8.861532	-0.888799	-15.216077	25.588494	81.020903	87.553213	23.293125	25.195526	20.034192	5.303000	184.509279	-0.133350	3.458278	-44.810410	-24.174446
1.916667	1.962214	-3.520591	91.933427	0.148201	0.865550	0.741543	4.570211	0.627786	-16.507114	14.876521	0.259644	28.541128	17.750819	0.000000	2.212778	-1.390484	0.931639	10.223050	0.178426	21.283875	-14.316450	0.000000	-0.192924	0.323232	0.764857	-0.358280	0.429899	0.812661	-0.316955	0.785907	0.812661	-0.220493	0.785907	0.669250	-0.179149	0.659135	0.621447	-0.110237	0.500687	0.573643	-1.378039	3.656467	4.253907	0.000000	0.000000	16.104138	4.568411	-9.578215	-0.526642	-14.847946	25.660522	82.230561	80.941481	20.614110	27.088572	20.114033	7.713487	196.681157	-2.426829	2.772131	-49.554929	-26.557526
